<mxfile host="Electron" modified="2023-08-02T07:04:26.513Z" agent="Mozilla/5.0 (Macintosh; Intel Mac OS X 10_15_7) AppleWebKit/537.36 (KHTML, like Gecko) draw.io/21.6.5 Chrome/114.0.5735.243 Electron/25.3.1 Safari/537.36" etag="p35V82dkOH8W6pO1eCDU" version="21.6.5" type="device">
  <diagram name="Update from Template - High-level design" id="HNA4ruy8jlA4YYfhhtkU">
    <mxGraphModel dx="3354" dy="1934" grid="1" gridSize="5" guides="1" tooltips="1" connect="1" arrows="1" fold="1" page="1" pageScale="1" pageWidth="1169" pageHeight="827" background="none" math="0" shadow="0">
      <root>
        <mxCell id="0" />
        <mxCell id="1" parent="0" />
        <mxCell id="tF4kJ36vgRh0v8QVixF1-22" value="" style="rounded=0;whiteSpace=wrap;html=1;fillColor=none;fontColor=#333333;strokeColor=#666666;" parent="1" vertex="1">
          <mxGeometry x="799" y="244.5" width="130" height="54" as="geometry" />
        </mxCell>
        <mxCell id="ivtmZmyJrMCVqw1YNCTe-31" value="&lt;b&gt;Update from Template&lt;/b&gt;&lt;br&gt;&lt;br&gt;Registered GitHub App" style="rounded=0;whiteSpace=wrap;html=1;fillColor=#f5f5f5;strokeColor=#666666;fontColor=#333333;" parent="1" vertex="1">
          <mxGeometry x="195" y="91" width="220" height="160" as="geometry" />
        </mxCell>
        <mxCell id="ivtmZmyJrMCVqw1YNCTe-40" value="&lt;h1&gt;&lt;span style=&quot;font-size: 16px; background-color: initial; font-weight: normal;&quot;&gt;Update from Template - High-level design&lt;/span&gt;&lt;br&gt;&lt;/h1&gt;&lt;p&gt;&lt;span style=&quot;font-size: 10px; background-color: initial;&quot;&gt;Last updated: 01/08/2023&lt;/span&gt;&lt;br&gt;&lt;/p&gt;" style="text;html=1;strokeColor=none;fillColor=none;spacing=5;spacingTop=-20;whiteSpace=wrap;overflow=hidden;rounded=0;" parent="1" vertex="1">
          <mxGeometry x="5" y="730" width="315" height="90" as="geometry" />
        </mxCell>
        <mxCell id="tF4kJ36vgRh0v8QVixF1-1" value="&lt;b&gt;Update from Template&lt;/b&gt;&lt;br&gt;&lt;br&gt;App installation at the org level" style="rounded=0;whiteSpace=wrap;html=1;fillColor=#dae8fc;strokeColor=#6c8ebf;" parent="1" vertex="1">
          <mxGeometry x="195" y="371" width="220" height="160" as="geometry" />
        </mxCell>
        <mxCell id="tF4kJ36vgRh0v8QVixF1-2" value="&lt;b&gt;Update from Template&lt;/b&gt;&lt;br&gt;&lt;br&gt;Action" style="rounded=0;whiteSpace=wrap;html=1;fillColor=#dae8fc;strokeColor=#6c8ebf;" parent="1" vertex="1">
          <mxGeometry x="755" y="371" width="220" height="160" as="geometry" />
        </mxCell>
        <mxCell id="LwBWUpAdodE-Z5iKHwp5-1" value="Permissions" style="shape=document;whiteSpace=wrap;html=1;boundedLbl=1;fillColor=#FFCCE6;strokeColor=#9673a6;fontColor=#1A1A1A;fontStyle=0" parent="1" vertex="1">
          <mxGeometry x="473.87" y="131" width="120" height="80" as="geometry" />
        </mxCell>
        <mxCell id="tF4kJ36vgRh0v8QVixF1-3" value="Permissions" style="shape=document;whiteSpace=wrap;html=1;boundedLbl=1;fillColor=#FFCCE6;strokeColor=#9673a6;fontColor=#1A1A1A;fontStyle=0" parent="1" vertex="1">
          <mxGeometry x="475" y="231" width="120" height="80" as="geometry" />
        </mxCell>
        <mxCell id="tF4kJ36vgRh0v8QVixF1-6" value="" style="rounded=0;whiteSpace=wrap;html=1;fillColor=#f5f5f5;strokeColor=#666666;fontColor=#333333;" parent="1" vertex="1">
          <mxGeometry x="775" y="656" width="180" height="60" as="geometry" />
        </mxCell>
        <mxCell id="tF4kJ36vgRh0v8QVixF1-5" value="" style="rounded=0;whiteSpace=wrap;html=1;fillColor=#f5f5f5;strokeColor=#666666;fontColor=#333333;" parent="1" vertex="1">
          <mxGeometry x="765" y="666" width="180" height="60" as="geometry" />
        </mxCell>
        <mxCell id="tF4kJ36vgRh0v8QVixF1-4" value="Repositories" style="rounded=0;whiteSpace=wrap;html=1;fillColor=#f5f5f5;strokeColor=#666666;fontColor=#333333;" parent="1" vertex="1">
          <mxGeometry x="755" y="676" width="180" height="60" as="geometry" />
        </mxCell>
        <mxCell id="tF4kJ36vgRh0v8QVixF1-7" value="" style="endArrow=classic;html=1;rounded=0;" parent="1" source="tF4kJ36vgRh0v8QVixF1-1" target="tF4kJ36vgRh0v8QVixF1-3" edge="1">
          <mxGeometry width="50" height="50" relative="1" as="geometry">
            <mxPoint x="715" y="501" as="sourcePoint" />
            <mxPoint x="765" y="451" as="targetPoint" />
          </mxGeometry>
        </mxCell>
        <mxCell id="tF4kJ36vgRh0v8QVixF1-8" value="has" style="edgeLabel;html=1;align=center;verticalAlign=middle;resizable=0;points=[];" parent="tF4kJ36vgRh0v8QVixF1-7" vertex="1" connectable="0">
          <mxGeometry x="-0.0232" y="-1" relative="1" as="geometry">
            <mxPoint as="offset" />
          </mxGeometry>
        </mxCell>
        <mxCell id="tF4kJ36vgRh0v8QVixF1-9" value="" style="endArrow=classic;html=1;rounded=0;" parent="1" source="ivtmZmyJrMCVqw1YNCTe-31" target="LwBWUpAdodE-Z5iKHwp5-1" edge="1">
          <mxGeometry width="50" height="50" relative="1" as="geometry">
            <mxPoint x="309" y="446" as="sourcePoint" />
            <mxPoint x="313" y="521" as="targetPoint" />
          </mxGeometry>
        </mxCell>
        <mxCell id="tF4kJ36vgRh0v8QVixF1-10" value="has" style="edgeLabel;html=1;align=center;verticalAlign=middle;resizable=0;points=[];" parent="tF4kJ36vgRh0v8QVixF1-9" vertex="1" connectable="0">
          <mxGeometry x="-0.0232" y="-1" relative="1" as="geometry">
            <mxPoint as="offset" />
          </mxGeometry>
        </mxCell>
        <mxCell id="tF4kJ36vgRh0v8QVixF1-11" value="" style="endArrow=classic;html=1;rounded=0;" parent="1" source="ivtmZmyJrMCVqw1YNCTe-31" target="tF4kJ36vgRh0v8QVixF1-1" edge="1">
          <mxGeometry width="50" height="50" relative="1" as="geometry">
            <mxPoint x="305" y="281" as="sourcePoint" />
            <mxPoint x="515" y="286" as="targetPoint" />
          </mxGeometry>
        </mxCell>
        <mxCell id="tF4kJ36vgRh0v8QVixF1-12" value="is installed as" style="edgeLabel;html=1;align=center;verticalAlign=middle;resizable=0;points=[];" parent="tF4kJ36vgRh0v8QVixF1-11" vertex="1" connectable="0">
          <mxGeometry x="-0.0232" y="-1" relative="1" as="geometry">
            <mxPoint as="offset" />
          </mxGeometry>
        </mxCell>
        <mxCell id="tF4kJ36vgRh0v8QVixF1-13" value="" style="endArrow=classic;html=1;rounded=0;" parent="1" source="tF4kJ36vgRh0v8QVixF1-2" target="tF4kJ36vgRh0v8QVixF1-1" edge="1">
          <mxGeometry width="50" height="50" relative="1" as="geometry">
            <mxPoint x="309" y="406" as="sourcePoint" />
            <mxPoint x="313" y="481" as="targetPoint" />
          </mxGeometry>
        </mxCell>
        <mxCell id="tF4kJ36vgRh0v8QVixF1-14" value="acquires&lt;br&gt;token" style="edgeLabel;html=1;align=center;verticalAlign=middle;resizable=0;points=[];" parent="tF4kJ36vgRh0v8QVixF1-13" vertex="1" connectable="0">
          <mxGeometry x="-0.0232" y="-1" relative="1" as="geometry">
            <mxPoint as="offset" />
          </mxGeometry>
        </mxCell>
        <mxCell id="tF4kJ36vgRh0v8QVixF1-15" value="update" style="endArrow=classic;html=1;rounded=0;" parent="1" source="tF4kJ36vgRh0v8QVixF1-2" target="tF4kJ36vgRh0v8QVixF1-6" edge="1">
          <mxGeometry width="50" height="50" relative="1" as="geometry">
            <mxPoint x="575" y="339" as="sourcePoint" />
            <mxPoint x="350" y="333" as="targetPoint" />
          </mxGeometry>
        </mxCell>
        <mxCell id="tF4kJ36vgRh0v8QVixF1-16" value="updates" style="edgeLabel;html=1;align=center;verticalAlign=middle;resizable=0;points=[];" parent="tF4kJ36vgRh0v8QVixF1-15" vertex="1" connectable="0">
          <mxGeometry x="-0.0232" y="-1" relative="1" as="geometry">
            <mxPoint as="offset" />
          </mxGeometry>
        </mxCell>
        <mxCell id="tF4kJ36vgRh0v8QVixF1-18" value="&lt;ul&gt;&lt;li&gt;Metadata read-only&lt;/li&gt;&lt;li&gt;Contents read/write&lt;/li&gt;&lt;li&gt;Workflows read/write&lt;/li&gt;&lt;/ul&gt;" style="text;strokeColor=none;fillColor=none;html=1;whiteSpace=wrap;verticalAlign=middle;overflow=hidden;horizontal=1;" parent="1" vertex="1">
          <mxGeometry x="583.87" y="131" width="220" height="60" as="geometry" />
        </mxCell>
        <mxCell id="tF4kJ36vgRh0v8QVixF1-19" value="&lt;ul&gt;&lt;li&gt;Repository access&lt;/li&gt;&lt;/ul&gt;" style="text;strokeColor=none;fillColor=none;html=1;whiteSpace=wrap;verticalAlign=middle;overflow=hidden;horizontal=1;" parent="1" vertex="1">
          <mxGeometry x="585" y="231" width="220" height="60" as="geometry" />
        </mxCell>
        <mxCell id="tF4kJ36vgRh0v8QVixF1-20" value="App ID" style="rounded=0;whiteSpace=wrap;html=1;fillColor=#dae8fc;strokeColor=#6c8ebf;" parent="1" vertex="1">
          <mxGeometry x="804" y="248.5" width="120" height="20" as="geometry" />
        </mxCell>
        <mxCell id="tF4kJ36vgRh0v8QVixF1-21" value="App Private Key" style="rounded=0;whiteSpace=wrap;html=1;fillColor=#dae8fc;strokeColor=#6c8ebf;" parent="1" vertex="1">
          <mxGeometry x="804" y="273.5" width="120" height="20" as="geometry" />
        </mxCell>
        <mxCell id="tF4kJ36vgRh0v8QVixF1-23" value="Secrets" style="text;html=1;strokeColor=none;fillColor=none;align=left;verticalAlign=middle;whiteSpace=wrap;rounded=0;" parent="1" vertex="1">
          <mxGeometry x="799" y="223.5" width="50" height="21" as="geometry" />
        </mxCell>
        <mxCell id="tF4kJ36vgRh0v8QVixF1-24" value="uses" style="endArrow=classic;html=1;rounded=0;" parent="1" source="tF4kJ36vgRh0v8QVixF1-2" target="tF4kJ36vgRh0v8QVixF1-21" edge="1">
          <mxGeometry width="50" height="50" relative="1" as="geometry">
            <mxPoint x="870" y="536" as="sourcePoint" />
            <mxPoint x="870" y="661" as="targetPoint" />
          </mxGeometry>
        </mxCell>
      </root>
    </mxGraphModel>
  </diagram>
</mxfile>
